# Blender v2.79 (sub 0) OBJ File: ''
# www.blender.org
mtllib skrzynka.mtl
o Cube_Cube.001
v -4.523684 1.671471 2.562946
v -4.523684 1.671471 -2.517071
v 4.425737 1.671471 2.562946
v 4.425737 1.671471 -2.517071
v -4.523684 0.915329 2.562946
v -4.523684 0.915329 -2.517071
v 4.425737 0.915329 -2.517071
v 4.425737 0.915329 2.562946
v -4.505310 -1.671471 -2.548043
v -4.505310 -1.671471 2.531973
v -4.505310 0.915329 -2.548043
v 4.444111 -1.671471 -2.548043
v 4.444111 0.915329 -2.548043
v 4.444111 -1.671471 2.531973
v 4.444111 0.915329 2.531973
v -4.505310 0.915329 2.531973
v -3.758595 0.874804 -2.477224
v -3.758595 0.934726 -2.477224
v -3.758595 0.874804 -2.552403
v -3.758595 0.934726 -2.552403
v -3.475474 0.874804 -2.477224
v -3.475474 0.934726 -2.477224
v -3.475474 0.874804 -2.552403
v -3.475474 0.934726 -2.552403
v -3.490075 0.872145 -2.448541
v -3.490075 0.971749 -2.448541
v -3.490075 0.872145 -2.548145
v -3.490075 0.971749 -2.548145
v -2.732249 0.872145 -2.448541
v -2.732249 0.971749 -2.448541
v -2.732249 0.872145 -2.548145
v -2.732249 0.971749 -2.548145
v 2.685986 0.884516 -2.448541
v 2.685986 0.984120 -2.448541
v 2.685986 0.884516 -2.548145
v 2.685986 0.984120 -2.548145
v 3.417168 0.884516 -2.448541
v 3.417168 0.984120 -2.448541
v 3.417168 0.884516 -2.548145
v 3.417168 0.984120 -2.548145
vt 0.604419 0.688490
vt 0.604419 0.774221
vt 0.388709 0.774221
vt 0.388709 0.688490
vt 0.993062 0.303559
vt 0.993062 0.389393
vt 0.611742 0.389393
vt 0.611742 0.303559
vt 0.602740 0.296515
vt 0.602740 0.381689
vt 0.387468 0.381689
vt 0.387468 0.296515
vt 0.379004 0.294182
vt 0.379004 0.378062
vt 0.003681 0.378062
vt 0.003681 0.294182
vt 0.383980 0.971523
vt 0.001926 0.971523
vt 0.001926 0.388325
vt 0.383980 0.388325
vt 0.612121 0.408349
vt 0.997194 0.408349
vt 0.997194 0.989373
vt 0.612121 0.989373
vt 0.379774 0.007223
vt 0.379774 0.294182
vt 0.004452 0.294182
vt 0.004452 0.007223
vt 0.605082 0.001547
vt 0.605082 0.298498
vt 0.385698 0.298498
vt 0.385698 0.001547
vt 0.992278 0.009918
vt 0.992278 0.303559
vt 0.610960 0.303559
vt 0.610960 0.009918
vt 0.607239 0.391255
vt 0.607239 0.688841
vt 0.388370 0.688841
vt 0.388370 0.391255
vt 0.960392 0.298496
vt 0.960392 0.305195
vt 0.960392 0.305195
vt 0.960392 0.298496
vt 0.948484 0.305195
vt 0.948484 0.298496
vt 0.948484 0.305195
vt 0.948484 0.298496
vt 0.949098 0.298198
vt 0.949098 0.309334
vt 0.949098 0.309334
vt 0.949098 0.298198
vt 0.917225 0.309334
vt 0.917225 0.298198
vt 0.917225 0.309334
vt 0.917225 0.298198
vt 0.685787 0.301246
vt 0.685787 0.312382
vt 0.685787 0.312382
vt 0.685787 0.301246
vt 0.655034 0.312382
vt 0.655034 0.301246
vt 0.655034 0.312382
vt 0.655034 0.301246
vn -1.0000 0.0000 0.0000
vn 0.0000 0.0000 -1.0000
vn 1.0000 0.0000 0.0000
vn 0.0000 0.0000 1.0000
vn 0.0000 1.0000 0.0000
vn 0.0000 -1.0000 0.0000
g Cube_Cube.001_Material.001
usemtl Material.001
s off
f 5/1/1 1/2/1 2/3/1 6/4/1
f 6/5/2 2/6/2 4/7/2 7/8/2
f 7/9/3 4/10/3 3/11/3 8/12/3
f 8/13/4 3/14/4 1/15/4 5/16/4
f 4/17/5 2/18/5 1/19/5 3/20/5
f 9/21/6 12/22/6 14/23/6 10/24/6
f 14/25/4 15/26/4 16/27/4 10/28/4
f 12/29/3 13/30/3 15/31/3 14/32/3
f 9/33/2 11/34/2 13/35/2 12/36/2
f 10/37/1 16/38/1 11/39/1 9/40/1
f 17/41/1 18/42/1 20/43/1 19/44/1
f 19/44/2 20/43/2 24/45/2 23/46/2
f 23/46/3 24/45/3 22/47/3 21/48/3
f 21/48/4 22/47/4 18/42/4 17/41/4
f 19/44/6 23/46/6 21/48/6 17/41/6
f 24/45/5 20/43/5 18/42/5 22/47/5
f 25/49/1 26/50/1 28/51/1 27/52/1
f 27/52/2 28/51/2 32/53/2 31/54/2
f 31/54/3 32/53/3 30/55/3 29/56/3
f 29/56/4 30/55/4 26/50/4 25/49/4
f 27/52/6 31/54/6 29/56/6 25/49/6
f 32/53/5 28/51/5 26/50/5 30/55/5
f 33/57/1 34/58/1 36/59/1 35/60/1
f 35/60/2 36/59/2 40/61/2 39/62/2
f 39/62/3 40/61/3 38/63/3 37/64/3
f 37/64/4 38/63/4 34/58/4 33/57/4
f 35/60/6 39/62/6 37/64/6 33/57/6
f 40/61/5 36/59/5 34/58/5 38/63/5
