# Blender v2.79 (sub 0) OBJ File: ''
# www.blender.org
mtllib pacholek.mtl
o Circle.002
v -0.038104 -1.728042 -0.859828
v -0.596001 -1.728042 -0.487054
v -0.726902 -1.728042 0.171030
v -0.354127 -1.728042 0.728927
v 0.303957 -1.728042 0.859828
v 0.861854 -1.728042 0.487053
v 0.992754 -1.728042 -0.171032
v 0.619979 -1.728042 -0.728928
v -0.038104 -1.616104 -0.859828
v -0.596001 -1.616104 -0.487054
v -0.726902 -1.616104 0.171030
v -0.354127 -1.616104 0.728927
v 0.303957 -1.616104 0.859828
v 0.861854 -1.616104 0.487053
v 0.992754 -1.616104 -0.171032
v 0.619979 -1.616104 -0.728928
v -0.047635 -1.553139 -0.907744
v -0.636622 -1.553139 -0.514196
v -0.774817 -1.553139 0.180561
v -0.381269 -1.553139 0.769548
v 0.313488 -1.553139 0.907743
v 0.902475 -1.553139 0.514195
v 1.040670 -1.553139 -0.180563
v 0.647121 -1.553139 -0.769549
v -0.047635 -1.378236 -0.907744
v -0.636622 -1.378236 -0.514196
v -0.774817 -1.378236 0.180561
v -0.381269 -1.378236 0.769548
v 0.313488 -1.378236 0.907743
v 0.902475 -1.378236 0.514195
v 1.040670 -1.378236 -0.180563
v 0.647121 -1.378236 -0.769549
v -0.033305 -1.315271 -0.835701
v -0.575547 -1.315271 -0.473387
v -0.702775 -1.315271 0.166231
v -0.340460 -1.315271 0.708473
v 0.299158 -1.315271 0.835701
v 0.841400 -1.315271 0.473386
v 0.968627 -1.315271 -0.166232
v 0.606312 -1.315271 -0.708474
v 0.076214 3.370820 -0.285113
v -0.108780 3.370820 -0.161504
v -0.152186 3.370820 0.056712
v -0.028577 3.370820 0.241706
v 0.189639 3.370820 0.285112
v 0.374633 3.370820 0.161503
v 0.418038 3.370820 -0.056713
v 0.294429 3.370820 -0.241707
v 0.206242 2.746216 0.369937
v -0.177411 2.746216 -0.204241
v 0.444075 2.746216 0.211022
v -0.233214 2.746216 0.076301
v 0.499878 2.746216 -0.069520
v -0.074300 2.746216 0.314133
v 0.060421 2.746216 -0.363156
v 0.340963 2.746216 -0.307353
v 0.197692 3.078979 0.325789
v -0.142798 3.078979 -0.183790
v 0.408766 3.078979 0.184753
v -0.192323 3.078979 0.065189
v 0.458291 3.078979 -0.064226
v -0.051288 3.078979 0.276264
v 0.068276 3.078979 -0.324826
v 0.317255 3.078979 -0.275301
v 0.080585 3.386617 -0.263140
v -0.090153 3.386617 -0.149057
v -0.130213 3.386617 0.052341
v -0.016130 3.386617 0.223078
v 0.185268 3.386617 0.263139
v 0.356005 3.386617 0.149056
v 0.396066 3.386617 -0.052342
v 0.281982 3.386617 -0.223079
v 0.090509 3.386617 -0.213244
v -0.047853 3.386617 -0.120793
v -0.080318 3.386617 0.042416
v 0.012133 3.386617 0.180779
v 0.175343 3.386617 0.213243
v 0.313706 3.386617 0.120792
v 0.346170 3.386617 -0.042418
v 0.253719 3.386617 -0.180780
v 0.093768 3.364548 -0.196865
v -0.033967 3.364548 -0.111515
v -0.063938 3.364548 0.039158
v 0.021412 3.364548 0.166893
v 0.172085 3.364548 0.196864
v 0.299820 3.364548 0.111514
v 0.329791 3.364548 -0.039159
v 0.244441 3.364548 -0.166894
v 0.087986 2.350400 -0.225929
v -0.058606 2.350400 -0.127979
v -0.093002 2.350400 0.044939
v 0.004948 2.350400 0.191532
v 0.177866 2.350400 0.225928
v 0.324459 2.350400 0.127977
v 0.358854 2.350400 -0.044941
v 0.260904 2.350400 -0.191533
v -0.354127 -1.711008 0.728927
v -0.038104 -1.711008 -0.859828
v 0.619979 -1.711008 -0.728928
v 0.303957 -1.711008 0.859828
v -0.596001 -1.711008 -0.487054
v 0.861854 -1.711008 0.487053
v -0.726902 -1.711008 0.171030
v 0.992754 -1.711008 -0.171032
v -0.747756 -1.728043 1.508754
v -1.375829 -1.728043 0.880681
v 1.641681 -1.728043 0.880681
v 1.013608 -1.728043 1.508754
v -1.375829 -1.728043 -0.880682
v -0.747756 -1.728043 -1.508755
v 1.013608 -1.728043 -1.508755
v 1.641681 -1.728043 -0.880682
v -0.747756 -1.920555 -1.508755
v -1.375829 -1.920555 -0.880682
v -1.375829 -1.920555 0.880681
v -0.747756 -1.920555 1.508754
v 1.013608 -1.920555 1.508754
v 1.641681 -1.920555 0.880681
v 1.641681 -1.920555 -0.880682
v 1.013608 -1.920555 -1.508755
vt 0.038854 0.599794
vt 0.051052 0.600100
vt 0.055830 0.511610
vt 0.044054 0.510570
vt 0.071536 0.335806
vt 0.083279 0.338260
vt 0.100573 0.252907
vt 0.089268 0.250595
vt 0.039949 0.689915
vt 0.052316 0.689290
vt 0.062425 0.871458
vt 0.079036 0.959824
vt 0.090774 0.957643
vt 0.074997 0.869288
vt 0.054248 0.421726
vt 0.066492 0.423623
vt 0.048075 0.781611
vt 0.060423 0.780165
vt 0.070598 0.779106
vt 0.062493 0.688924
vt 0.065830 0.512669
vt 0.077067 0.425253
vt 0.084543 0.867696
vt 0.061098 0.600498
vt 0.092466 0.340093
vt 0.111683 0.252540
vt 0.102209 0.958221
vt 0.088752 0.514332
vt 0.099577 0.428282
vt 0.106691 0.863625
vt 0.094159 0.776308
vt 0.118140 0.861423
vt 0.107387 0.774747
vt 0.084146 0.600503
vt 0.114150 0.344010
vt 0.136153 0.258396
vt 0.085600 0.687678
vt 0.127592 0.952508
vt 0.125150 0.346547
vt 0.146117 0.264526
vt 0.097777 0.687177
vt 0.096115 0.601038
vt 0.100629 0.515703
vt 0.138009 0.946338
vt 0.111272 0.430308
vt 0.705197 0.444320
vt 0.694258 0.484700
vt 0.733195 0.493680
vt 0.743316 0.456096
vt 0.639325 0.747523
vt 0.651105 0.794169
vt 0.704180 0.777905
vt 0.693201 0.736199
vt 0.686309 0.525873
vt 0.725870 0.531946
vt 0.641888 0.472501
vt 0.633072 0.517577
vt 0.685591 0.694181
vt 0.725789 0.688284
vt 0.721409 0.649054
vt 0.681091 0.651965
vt 0.681454 0.567609
vt 0.721434 0.570708
vt 0.733098 0.727325
vt 0.679706 0.609711
vt 0.719966 0.609791
vt 0.743316 0.765990
vt 0.626853 0.655627
vt 0.631487 0.701770
vt 0.654088 0.428371
vt 0.625549 0.609391
vt 0.627620 0.563295
vt 0.928576 0.412352
vt 0.926078 0.417071
vt 0.955749 0.447478
vt 0.960017 0.444604
vt 0.977454 0.484027
vt 0.972695 0.485537
vt 0.981134 0.525088
vt 0.985938 0.524484
vt 0.988329 0.564745
vt 0.983575 0.564680
vt 0.980971 0.603731
vt 0.985619 0.604426
vt 0.977394 0.643016
vt 0.972965 0.641559
vt 0.957861 0.676479
vt 0.961728 0.679025
vt 0.932885 0.703453
vt 0.935209 0.707588
vt 0.962156 0.488508
vt 0.970417 0.526048
vt 0.972979 0.564143
vt 0.970692 0.601809
vt 0.963349 0.638019
vt 0.949859 0.670921
vt 0.946269 0.453452
vt 0.929033 0.695569
vt 0.921766 0.426998
vt 0.945061 0.667902
vt 0.926154 0.691826
vt 0.918728 0.431507
vt 0.940993 0.456874
vt 0.956200 0.490376
vt 0.964248 0.526802
vt 0.966819 0.564040
vt 0.964698 0.600906
vt 0.957747 0.636204
vt 0.775150 0.486514
vt 0.778689 0.511716
vt 0.780861 0.537282
vt 0.781528 0.563015
vt 0.780671 0.588767
vt 0.778375 0.614425
vt 0.774880 0.639909
vt 0.770558 0.667046
vt 0.770558 0.461934
vt 0.207807 0.137549
vt 0.186273 0.159083
vt 0.186273 0.189537
vt 0.207806 0.211071
vt 0.238260 0.211071
vt 0.259794 0.189537
vt 0.259794 0.159083
vt 0.238260 0.137549
vt 0.807148 0.978777
vt 0.902957 0.978777
vt 0.970704 0.911030
vt 0.970704 0.815222
vt 0.902957 0.747475
vt 0.807148 0.747475
vt 0.739402 0.815222
vt 0.739402 0.911030
vt 0.060161 0.871852
vt 0.045766 0.781898
vt 0.052025 0.421375
vt 0.041789 0.510374
vt 0.037636 0.690032
vt 0.069363 0.335361
vt 0.076792 0.960246
vt 0.036573 0.599741
vt 0.087105 0.250144
vt 0.099975 0.019240
vt 0.099975 0.036579
vt 0.258612 0.036579
vt 0.258612 0.019240
vt 0.577245 0.019240
vt 0.577245 0.036579
vt 0.735882 0.036579
vt 0.735882 0.019240
vt 0.660146 0.272754
vt 0.660146 0.113853
vt 0.603485 0.057192
vt 0.444584 0.057192
vt 0.387923 0.113853
vt 0.387923 0.272753
vt 0.444584 0.329415
vt 0.603485 0.329415
vt 0.694812 0.112679
vt 0.694755 0.278847
vt 0.753988 0.338121
vt 0.920156 0.338178
vt 0.979430 0.278946
vt 0.979487 0.112777
vt 0.920254 0.053504
vt 0.754086 0.053446
vt 0.338611 0.019240
vt 0.338611 0.036579
vt 0.497247 0.036579
vt 0.497247 0.019240
vt 0.019977 0.019240
vt 0.019977 0.036579
vt 0.815880 0.036579
vt 0.815880 0.019240
vt 0.974516 0.036579
vt 0.974516 0.019240
vn 0.1951 0.0000 0.9808
vn 0.1827 -0.3511 0.9183
vn -0.5202 -0.3511 0.7785
vn -0.5556 0.0000 0.8314
vn -0.8314 0.0000 -0.5556
vn -0.7785 -0.3511 -0.5202
vn -0.1827 -0.3511 -0.9183
vn -0.1951 0.0000 -0.9808
vn 0.8314 0.0000 0.5556
vn 0.7785 -0.3511 0.5202
vn 0.5556 0.0000 -0.8314
vn 0.5202 -0.3511 -0.7785
vn -0.9808 0.0000 0.1951
vn -0.9183 -0.3511 0.1827
vn 0.9808 0.0000 -0.1951
vn 0.9183 -0.3511 -0.1827
vn 0.9350 -0.3020 -0.1859
vn 0.7926 -0.3020 0.5296
vn -0.5296 -0.3020 0.7926
vn -0.9350 -0.3020 0.1859
vn 0.5296 -0.3020 -0.7926
vn 0.1859 -0.3020 0.9350
vn -0.7926 -0.3020 -0.5296
vn -0.1859 -0.3020 -0.9350
vn -0.5131 0.3834 0.7679
vn -0.9058 0.3834 0.1802
vn 0.5131 0.3834 -0.7679
vn 0.9058 0.3834 -0.1802
vn 0.4772 0.5119 -0.7143
vn 0.8426 0.5116 -0.1677
vn 0.1802 0.3834 0.9058
vn -0.7679 0.3834 -0.5131
vn -0.1802 0.3834 -0.9058
vn 0.7679 0.3834 0.5131
vn -0.7143 0.5118 -0.4773
vn -0.1676 0.5119 -0.8425
vn 0.7145 0.5114 0.4773
vn 0.1677 0.5113 0.8429
vn -0.4775 0.5114 0.7145
vn -0.8427 0.5116 0.1675
vn -0.1934 0.1268 -0.9729
vn -0.8242 0.1286 -0.5515
vn -0.7286 0.4815 -0.4871
vn -0.1710 0.4812 -0.8597
vn 0.5523 0.1182 -0.8252
vn -0.1938 0.1173 -0.9740
vn 0.5505 0.1280 -0.8249
vn -0.9723 0.1324 0.1924
vn -0.8593 0.4820 0.1707
vn -0.8260 0.1186 -0.5510
vn -0.9733 0.1213 0.1947
vn 0.9720 0.1316 -0.1943
vn 0.8593 0.4819 -0.1712
vn 0.7284 0.4824 0.4865
vn 0.8242 0.1353 0.5498
vn -0.5509 0.1359 0.8234
vn -0.4867 0.4825 0.7282
vn 0.4868 0.4814 -0.7288
vn 0.1933 0.1372 0.9715
vn 0.1709 0.4827 0.8589
vn 0.8246 0.1235 0.5520
vn 0.9738 0.1207 -0.1926
vn 0.1935 0.1248 0.9731
vn -0.5507 0.1239 0.8254
vn -0.0717 0.9300 -0.3604
vn 0.2041 0.9300 -0.3055
vn 0.3604 0.9300 -0.0717
vn 0.3055 0.9300 0.2041
vn 0.0717 0.9300 0.3604
vn -0.2041 0.9300 0.3055
vn -0.3604 0.9300 0.0717
vn -0.3055 0.9300 -0.2041
vn -0.3412 0.9375 0.0678
vn -0.2892 0.9375 -0.1932
vn -0.0678 0.9375 -0.3412
vn 0.1932 0.9375 -0.2892
vn 0.3412 0.9375 -0.0678
vn 0.2892 0.9375 0.1932
vn -0.1932 0.9375 0.2892
vn 0.0678 0.9375 0.3412
vn 0.7847 0.3308 0.5243
vn 0.1841 0.3308 0.9256
vn -0.5243 0.3308 0.7847
vn -0.9256 0.3308 0.1841
vn -0.7847 0.3308 -0.5243
vn -0.1841 0.3308 -0.9256
vn 0.5243 0.3308 -0.7846
vn 0.9256 0.3308 -0.1841
vn -0.4362 0.6193 0.6529
vn -0.7701 0.6193 0.1532
vn -0.6529 0.6193 -0.4362
vn -0.1532 0.6193 -0.7701
vn 0.4362 0.6193 -0.6529
vn 0.7701 0.6193 -0.1532
vn 0.6529 0.6193 0.4362
vn 0.1532 0.6193 0.7701
vn -0.6455 -0.6302 -0.4313
vn -0.1515 -0.6302 -0.7614
vn 0.4313 -0.6302 -0.6455
vn 0.7614 -0.6302 -0.1515
vn 0.6455 -0.6302 0.4313
vn 0.1515 -0.6302 0.7614
vn -0.4313 -0.6302 0.6455
vn -0.7614 -0.6302 0.1515
vn -0.2971 0.6302 0.7173
vn -0.2971 -0.6302 0.7173
vn 0.2971 -0.6302 0.7173
vn 0.2971 0.6302 0.7173
vn 0.2971 0.6302 -0.7173
vn 0.2971 -0.6302 -0.7173
vn -0.2971 -0.6302 -0.7173
vn -0.2971 0.6302 -0.7173
vn 0.7173 0.6302 0.2971
vn 0.7173 0.6302 -0.2971
vn -0.7173 0.6302 -0.2971
vn -0.7173 0.6302 0.2971
vn -0.7173 -0.6302 0.2971
vn -0.7173 -0.6302 -0.2971
vn 0.7173 -0.6302 -0.2971
vn 0.7173 -0.6302 0.2971
g Circle.002_Circle.002_Material.001
usemtl Material.001
s 1
f 100/1/1 13/2/2 12/3/3 97/4/4
f 101/5/5 10/6/6 9/7/7 98/8/8
f 102/9/9 14/10/10 13/2/2 100/1/1
f 99/11/11 98/12/8 9/13/7 16/14/12
f 103/15/13 11/16/14 10/6/6 101/5/5
f 104/17/15 15/18/16 14/10/10 102/9/9
f 103/15/13 97/4/4 12/3/3 11/16/14
f 15/18/16 23/19/17 22/20/18 14/10/10
f 12/3/3 20/21/19 19/22/20 11/16/14
f 16/14/12 24/23/21 23/19/17 15/18/16
f 13/2/2 21/24/22 20/21/19 12/3/3
f 10/6/6 18/25/23 17/26/24 9/7/7
f 14/10/10 22/20/18 21/24/22 13/2/2
f 16/14/12 9/13/7 17/27/24 24/23/21
f 20/21/19 28/28/25 27/29/26 19/22/20
f 24/23/21 32/30/27 31/31/28 23/19/17
f 31/31/28 32/30/27 40/32/29 39/33/30
f 21/24/22 29/34/31 28/28/25 20/21/19
f 18/25/23 26/35/32 25/36/33 17/26/24
f 22/20/18 30/37/34 29/34/31 21/24/22
f 24/23/21 17/27/24 25/38/33 32/30/27
f 19/22/20 27/29/26 26/35/32 18/25/23
f 22/20/18 23/19/17 31/31/28 30/37/34
f 26/35/32 34/39/35 33/40/36 25/36/33
f 30/37/34 38/41/37 37/42/38 29/34/31
f 29/34/31 37/42/38 36/43/39 28/28/25
f 32/30/27 25/38/33 33/44/36 40/32/29
f 27/29/26 35/45/40 34/39/35 26/35/32
f 31/31/28 39/33/30 38/41/37 30/37/34
f 28/28/25 36/43/39 35/45/40 27/29/26
f 63/46/41 58/47/42 42/48/43 41/49/44
f 56/50/45 55/51/46 63/52/41 64/53/47
f 60/54/48 43/55/49 42/48/43 58/47/42
f 50/56/50 34/39/35 35/45/40 52/57/51
f 61/58/52 47/59/53 46/60/54 59/61/55
f 62/62/56 44/63/57 43/55/49 60/54/48
f 64/53/47 48/64/58 47/59/53 61/58/52
f 62/62/56 57/65/59 45/66/60 44/63/57
f 99/11/11 16/14/12 15/18/16 104/17/15
f 10/6/6 11/16/14 19/22/20 18/25/23
f 52/57/51 60/54/48 58/47/42 50/56/50
f 63/52/41 41/67/44 48/64/58 64/53/47
f 51/68/61 38/41/37 39/33/30 53/69/62
f 33/40/36 34/39/35 50/56/50 55/70/46
f 37/42/38 49/71/63 54/72/64 36/43/39
f 53/69/62 39/33/30 40/32/29 56/50/45
f 52/57/51 35/45/40 36/43/39 54/72/64
f 49/71/63 37/42/38 38/41/37 51/68/61
f 59/61/55 46/60/54 45/66/60 57/65/59
f 55/70/46 50/56/50 58/47/42 63/46/41
f 49/71/63 57/65/59 62/62/56 54/72/64
f 56/50/45 64/53/47 61/58/52 53/69/62
f 54/72/64 62/62/56 60/54/48 52/57/51
f 53/69/62 61/58/52 59/61/55 51/68/61
f 51/68/61 59/61/55 57/65/59 49/71/63
f 40/32/29 33/44/36 55/51/46 56/50/45
f 41/73/44 65/74/65 72/75/66 48/76/58
f 47/77/53 71/78/67 70/79/68 46/80/54
f 45/81/60 69/82/69 68/83/70 44/84/57
f 43/85/49 67/86/71 66/87/72 42/88/43
f 48/76/58 72/75/66 71/78/67 47/77/53
f 46/80/54 70/79/68 69/82/69 45/81/60
f 44/84/57 68/83/70 67/86/71 43/85/49
f 42/88/43 66/87/72 65/89/65 41/90/44
f 71/78/67 79/91/73 78/92/74 70/79/68
f 69/82/69 77/93/75 76/94/76 68/83/70
f 67/86/71 75/95/77 74/96/78 66/87/72
f 72/75/66 80/97/79 79/91/73 71/78/67
f 70/79/68 78/92/74 77/93/75 69/82/69
f 68/83/70 76/94/76 75/95/77 67/86/71
f 66/87/72 74/96/78 73/98/80 65/89/65
f 65/74/65 73/99/80 80/97/79 72/75/66
f 74/96/78 82/100/81 81/101/82 73/98/80
f 73/99/80 81/102/82 88/103/83 80/97/79
f 79/91/73 87/104/84 86/105/85 78/92/74
f 77/93/75 85/106/86 84/107/87 76/94/76
f 75/95/77 83/108/88 82/100/81 74/96/78
f 80/97/79 88/103/83 87/104/84 79/91/73
f 78/92/74 86/105/85 85/106/86 77/93/75
f 76/94/76 84/107/87 83/108/88 75/95/77
f 88/103/83 96/109/89 95/110/90 87/104/84
f 86/105/85 94/111/91 93/112/92 85/106/86
f 84/107/87 92/113/93 91/114/94 83/108/88
f 82/100/81 90/115/95 89/116/96 81/101/82
f 81/102/82 89/117/96 96/109/89 88/103/83
f 87/104/84 95/110/90 94/111/91 86/105/85
f 85/106/86 93/112/92 92/113/93 84/107/87
f 83/108/88 91/114/94 90/115/95 82/100/81
f 90/118/95 91/119/94 92/120/93 93/121/92 94/122/91 95/123/90 96/124/89 89/125/96
f 2/126/97 1/127/98 8/128/99 7/129/100 6/130/101 5/131/102 4/132/103 3/133/104
f 8/134/99 99/11/11 104/17/15 7/135/100
f 3/136/104 4/137/103 97/4/4 103/15/13
f 7/135/100 104/17/15 102/9/9 6/138/101
f 3/136/104 103/15/13 101/5/5 2/139/97
f 8/134/99 1/140/98 98/12/8 99/11/11
f 6/138/101 102/9/9 100/1/1 5/141/102
f 2/139/97 101/5/5 98/8/8 1/142/98
f 5/141/102 100/1/1 97/4/4 4/137/103
f 105/143/105 116/144/106 117/145/107 108/146/108
f 111/147/109 120/148/110 113/149/111 110/150/112
f 105/151/105 108/152/108 107/153/113 112/154/114 111/155/109 110/156/112 109/157/115 106/158/116
f 115/159/117 114/160/118 113/161/111 120/162/110 119/163/119 118/164/120 117/165/107 116/166/106
f 107/167/113 118/168/120 119/169/119 112/170/114
f 111/147/109 112/170/114 119/169/119 120/148/110
f 117/145/107 118/168/120 107/167/113 108/146/108
f 105/143/105 106/171/116 115/172/117 116/144/106
f 113/149/111 114/173/118 109/174/115 110/150/112
f 109/174/115 114/173/118 115/175/117 106/176/116
